<mxfile host="app.diagrams.net" modified="2023-07-28T19:36:37.007Z" agent="Mozilla/5.0 (Windows NT 10.0; Win64; x64) AppleWebKit/537.36 (KHTML, like Gecko) Chrome/115.0.0.0 Safari/537.36" version="21.6.6" etag="ezqrXYQ_essqCQ39CmXH" type="github">
  <diagram name="Page-1" id="67xb8SUJThYs-OtySRv7">
    <mxGraphModel>
      <root>
        <mxCell id="0" />
        <mxCell id="1" parent="0" />
      </root>
    </mxGraphModel>
  </diagram>
</mxfile>
